<svg class="icon" viewBox="0 0 1026 1024" version="1.1" xmlns="http://www.w3.org/2000/svg" width="200" height="200"><path d="M557.568 395.776V340.992c0-3.072-1.024-4.096-4.096-4.096h-23.552c-3.072 0-4.096 1.024-4.096 4.096v54.784c0 3.072 1.024 4.096 4.096 4.096h23.552c3.584 0 4.096-1.024 4.096-4.096z m125.44 0V340.992c0-3.072-1.024-4.096-4.096-4.096H655.36c-3.072 0-4.096 1.024-4.096 4.096v54.784c0 3.072 1.024 4.096 4.096 4.096h23.552c3.072 0 4.096-1.024 4.096-4.096z m124.928 8.192v183.808h-156.672V509.952c0-13.312-4.608-24.064-13.824-32.768-9.216-9.216-20.48-13.824-32.768-13.824-12.8 0-24.064 4.608-32.768 13.824-9.216 9.216-13.824 20.48-13.824 32.768V588.8H401.92V404.48c0-3.072 1.024-4.096 4.096-4.096h23.552c3.072 0 4.096 1.024 4.096 4.096v27.648h31.232V279.04c0-3.072 1.024-4.096 4.096-4.096h23.552c3.072 0 4.096 1.024 4.096 4.096v27.648h31.232v-27.648c0-3.072 1.024-4.096 4.096-4.096h23.552c3.072 0 4.096 1.024 4.096 4.096v27.648h31.232v-27.648c0-3.072 1.024-4.096 4.096-4.096h4.096V179.2c-5.632-3.072-7.68-7.68-7.68-13.312 0-4.096 1.024-7.68 4.608-10.752 3.072-3.072 7.168-4.608 10.752-4.608s7.68 1.024 10.752 4.608c3.072 3.072 4.608 7.168 4.608 10.752 0 5.632-3.072 10.24-7.68 13.312v2.048h66.56c3.072 0 4.096 1.024 4.096 4.096v54.784c0 3.072-1.024 4.096-4.096 4.096h-70.144v30.72h4.096c3.072 0 4.096 1.024 4.096 4.096v27.648h31.232v-27.648c0-3.072 1.024-4.096 4.096-4.096h23.552c3.072 0 4.096 1.024 4.096 4.096v27.648h31.232v-27.648c0-3.072 1.024-4.096 4.096-4.096h23.552c3.072 0 4.096 1.024 4.096 4.096v152.576h31.232v-27.648c0-3.072 1.024-4.096 4.096-4.096h23.552c3.584 0 4.096 2.048 4.096 4.096z" fill="#4DBA87" p-id="2285"></path><path d="M338.944 475.648l18.944-10.752L465.92 653.312l-18.944 10.752-108.032-188.416z" fill="#898989" p-id="2286"></path><path d="M370.688 413.696l7.68-30.208c1.024-4.608-0.512-10.24-4.096-13.824-4.096-3.584-9.216-4.096-14.336-2.56l-26.624 10.24c-4.096 1.536-8.704 1.024-12.8-1.024l-25.088-17.408c-4.096-3.072-10.24-3.584-14.848-0.512-4.608 2.56-7.168 7.68-7.168 12.8l2.56 30.208c0 4.096-1.536 8.704-5.12 11.264l-22.016 17.92c-4.096 3.072-6.144 8.192-4.608 13.824 1.024 5.12 4.608 8.704 10.24 10.752l30.72 8.704c3.072 1.024 5.12 3.072 7.168 6.144 0 0.512 0.512 1.024 0.512 1.024l11.264 30.208c1.536 4.608 6.656 8.192 11.776 8.704s10.752-2.56 12.8-6.656l14.848-23.04c1.024-1.536 3.072-3.584 4.608-4.608 1.536-1.024 4.096-1.536 6.144-1.536l28.16-0.512c2.56 0 4.608-0.512 6.656-1.536 2.56-1.024 4.608-3.584 6.144-6.144 2.56-4.608 1.024-10.752-1.536-14.336L373.76 427.52v-0.512c-0.512-0.512-1.024-1.024-1.536-2.56-2.048-4.608-2.048-8.192-1.536-10.752" fill="#EB4237" p-id="2287"></path><path d="M81.408 638.464s-14.336 12.8-28.16 36.352c-1.536 3.072-3.584 6.144-5.12 9.216-6.656 12.288-12.8 27.136-18.432 44.032-0.512 3.072-1.536 6.656-2.56 9.216-3.072 12.288-4.608 26.624-5.12 41.472V816.128h398.848s1.536-9.216 8.192-22.016c1.024-3.072 3.072-5.12 5.12-8.192 3.072-4.608 7.168-9.216 11.264-14.336 2.56-2.56 4.608-4.608 7.168-6.656 6.144-5.12 12.8-10.24 22.016-14.336 3.072-1.536 6.656-3.072 9.216-4.096 7.168-3.072 15.36-5.12 25.088-7.168-0.512-0.512-36.864-100.864-427.52-100.864z m923.648 140.288c-0.512-14.848-2.56-28.16-5.12-41.472-0.512-3.072-1.536-6.656-2.56-9.216-4.608-16.384-11.264-31.232-18.432-44.032-1.536-3.584-3.584-6.656-5.12-9.216-14.848-23.552-28.16-36.352-28.16-36.352-390.656 0-427.52 100.864-427.52 100.864 8.704 1.536 17.408 4.096 25.088 7.168 3.584 1.024 6.656 3.072 9.216 4.096 8.192 4.096 15.872 8.704 22.016 14.336 2.56 2.56 5.12 4.608 7.168 6.656 4.608 4.608 8.192 9.216 11.264 14.336 1.536 3.072 3.584 6.144 5.12 8.192 6.656 12.288 8.192 22.016 8.192 22.016h398.848V783.36v-4.608z" fill="#E0E0E0" p-id="2288"></path><path d="M488.96 711.68s-61.44-122.88-307.712-162.816c0 0-24.064 18.944-40.96 43.008 0 0 71.168 10.752 148.992 30.72-41.472-9.216-91.648-18.944-152.576-27.648 0 0-24.064 18.944-40.96 43.008 0 0 360.96 14.848 391.168 88.064 0 0 5.12-24.064-51.712-54.272 24.064 12.8 44.032 26.112 53.76 39.936z m407.552-114.176c-39.424 3.584-75.264 8.192-106.496 13.824 58.368-11.264 103.424-16.384 103.424-16.384-16.384-24.064-40.96-43.008-40.96-43.008-246.272 39.424-312.32 154.624-312.32 154.624 17.408-24.064 61.44-45.056 113.152-60.928-110.08 38.4-117.76 82.432-117.76 82.432 30.208-72.704 402.432-86.016 402.432-86.016-16.896-25.6-41.472-44.544-41.472-44.544z" fill="#EFEFEF" p-id="2289"></path><path d="M465.408 668.672c-59.904-52.736-162.304-96.256-304.64-129.536l-2.56 9.216c174.592 40.96 259.072 91.136 299.52 126.464 6.656 5.12 11.776 11.264 16.384 15.872-6.144-4.608-12.8-10.24-21.504-15.36-68.096-43.008-182.272-74.24-331.264-88.576l-1.024 9.216c184.832 18.432 279.04 56.832 325.632 86.016 50.176 31.232 56.832 59.392 57.344 59.392l4.608-1.024h4.608c0.512-1.536-1.536-31.232-47.104-71.68z m439.296-81.92c-148.992 14.848-263.168 45.056-331.264 88.576-8.192 5.12-15.36 10.24-21.504 15.36 4.608-5.12 10.24-10.752 16.384-15.872 40.448-34.816 124.928-86.016 299.52-126.464l-2.56-9.216c-142.848 33.792-245.76 76.8-304.64 129.536-45.568 40.448-47.104 70.656-47.104 71.68h4.608l4.608 1.024s7.168-27.648 57.344-59.392c46.592-29.184 140.8-68.096 325.632-86.016l-1.024-9.216z" fill="#E0E0E0" p-id="2290"></path><path d="M607.744 812.032c-20.48-95.232-165.376-95.232-185.856 0H2.56v23.552h440.32c0-95.232 143.36-95.232 143.36 0h440.32v-23.552h-418.816z" fill="#898989"></path></svg>
